<?xml version="1.0" encoding="UTF-8"?>
<!--Generator: Apple Native CoreSVG 341-->
<!DOCTYPE svg
PUBLIC "-//W3C//DTD SVG 1.1//EN"
       "http://www.w3.org/Graphics/SVG/1.1/DTD/svg11.dtd">
<svg version="1.1" xmlns="http://www.w3.org/2000/svg" xmlns:xlink="http://www.w3.org/1999/xlink" viewBox="0 0 3300 2200">
 <!--glyph: "", point size: 100.0, font version: "20.0d8e1", template writer version: "138.0.0"-->
 <style>.monochrome-0 {-sfsymbols-motion-group:1;-sfsymbols-layer-tags:153f4ce2d975eb4 60f8cbff9987ed3b brain}
.monochrome-1 {opacity:0.0;-sfsymbols-clear-behind:true;-sfsymbols-motion-group:0;-sfsymbols-layer-tags:60f8cbff9987ed3b _badge gearshape.fill}
.monochrome-2 {-sfsymbols-motion-group:0;-sfsymbols-always-pulses:true;-sfsymbols-layer-tags:60f8cbff9987ed3b _badge gearshape.fill}

.multicolor-0:tintColor {-sfsymbols-motion-group:1;-sfsymbols-layer-tags:153f4ce2d975eb4 60f8cbff9987ed3b brain}
.multicolor-1:tintColor {opacity:0.0;-sfsymbols-clear-behind:true;-sfsymbols-motion-group:0;-sfsymbols-layer-tags:60f8cbff9987ed3b _badge gearshape.fill}
.multicolor-2:tintColor {-sfsymbols-motion-group:0;-sfsymbols-always-pulses:true;-sfsymbols-layer-tags:60f8cbff9987ed3b _badge gearshape.fill}

.hierarchical-0:secondary {-sfsymbols-motion-group:1;-sfsymbols-layer-tags:153f4ce2d975eb4 60f8cbff9987ed3b brain}
.hierarchical-1:primary {opacity:0.0;-sfsymbols-clear-behind:true;-sfsymbols-motion-group:0;-sfsymbols-layer-tags:60f8cbff9987ed3b _badge gearshape.fill}
.hierarchical-2:primary {-sfsymbols-motion-group:0;-sfsymbols-layer-tags:60f8cbff9987ed3b _badge gearshape.fill}

.SFSymbolsPreviewWireframe {fill:none;opacity:1.0;stroke:black;stroke-width:0.5}
</style>
 <g id="Notes">
  <rect height="2200" id="artboard" style="fill:white;opacity:1" width="3300" x="0" y="0"/>
  <line style="fill:none;stroke:black;opacity:1;stroke-width:0.5;" x1="263" x2="3036" y1="292" y2="292"/>
  <text style="stroke:none;fill:black;font-family:sans-serif;font-size:13;font-weight:bold;" transform="matrix(1 0 0 1 263 322)">Weight/Scale Variations</text>
  <text style="stroke:none;fill:black;font-family:sans-serif;font-size:13;text-anchor:middle;" transform="matrix(1 0 0 1 559.711 322)">Ultralight</text>
  <text style="stroke:none;fill:black;font-family:sans-serif;font-size:13;text-anchor:middle;" transform="matrix(1 0 0 1 856.422 322)">Thin</text>
  <text style="stroke:none;fill:black;font-family:sans-serif;font-size:13;text-anchor:middle;" transform="matrix(1 0 0 1 1153.13 322)">Light</text>
  <text style="stroke:none;fill:black;font-family:sans-serif;font-size:13;text-anchor:middle;" transform="matrix(1 0 0 1 1449.84 322)">Regular</text>
  <text style="stroke:none;fill:black;font-family:sans-serif;font-size:13;text-anchor:middle;" transform="matrix(1 0 0 1 1746.56 322)">Medium</text>
  <text style="stroke:none;fill:black;font-family:sans-serif;font-size:13;text-anchor:middle;" transform="matrix(1 0 0 1 2043.27 322)">Semibold</text>
  <text style="stroke:none;fill:black;font-family:sans-serif;font-size:13;text-anchor:middle;" transform="matrix(1 0 0 1 2339.98 322)">Bold</text>
  <text style="stroke:none;fill:black;font-family:sans-serif;font-size:13;text-anchor:middle;" transform="matrix(1 0 0 1 2636.69 322)">Heavy</text>
  <text style="stroke:none;fill:black;font-family:sans-serif;font-size:13;text-anchor:middle;" transform="matrix(1 0 0 1 2933.4 322)">Black</text>
  <line style="fill:none;stroke:black;opacity:1;stroke-width:0.5;" x1="263" x2="3036" y1="1903" y2="1903"/>
  <g transform="matrix(0.2 0 0 0.2 263 1933)">
   <path d="m46.2402 4.15039c21.7773 0 39.4531-17.627 39.4531-39.4043s-17.6758-39.4043-39.4531-39.4043c-21.7285 0-39.4043 17.627-39.4043 39.4043s17.6758 39.4043 39.4043 39.4043Zm0-7.42188c-17.6758 0-31.9336-14.3066-31.9336-31.9824s14.2578-31.9824 31.9336-31.9824 31.9824 14.3066 31.9824 31.9824-14.3066 31.9824-31.9824 31.9824Zm-17.9688-31.9824c0 2.14844 1.51367 3.61328 3.75977 3.61328h10.498v10.5957c0 2.19727 1.46484 3.71094 3.61328 3.71094 2.24609 0 3.71094-1.51367 3.71094-3.71094v-10.5957h10.5957c2.19727 0 3.71094-1.46484 3.71094-3.61328 0-2.19727-1.51367-3.71094-3.71094-3.71094h-10.5957v-10.5469c0-2.24609-1.46484-3.75977-3.71094-3.75977-2.14844 0-3.61328 1.51367-3.61328 3.75977v10.5469h-10.498c-2.24609 0-3.75977 1.51367-3.75977 3.71094Z"/>
  </g>
  <g transform="matrix(0.2 0 0 0.2 281.506 1933)">
   <path d="m58.5449 14.5508c27.4902 0 49.8047-22.3145 49.8047-49.8047s-22.3145-49.8047-49.8047-49.8047-49.8047 22.3145-49.8047 49.8047 22.3145 49.8047 49.8047 49.8047Zm0-8.30078c-22.9492 0-41.5039-18.5547-41.5039-41.5039s18.5547-41.5039 41.5039-41.5039 41.5039 18.5547 41.5039 41.5039-18.5547 41.5039-41.5039 41.5039Zm-22.6562-41.5039c0 2.39258 1.66016 4.00391 4.15039 4.00391h14.3555v14.4043c0 2.44141 1.66016 4.15039 4.05273 4.15039 2.44141 0 4.15039-1.66016 4.15039-4.15039v-14.4043h14.4043c2.44141 0 4.15039-1.61133 4.15039-4.00391 0-2.44141-1.70898-4.15039-4.15039-4.15039h-14.4043v-14.3555c0-2.49023-1.70898-4.19922-4.15039-4.19922-2.39258 0-4.05273 1.70898-4.05273 4.19922v14.3555h-14.3555c-2.49023 0-4.15039 1.70898-4.15039 4.15039Z"/>
  </g>
  <g transform="matrix(0.2 0 0 0.2 304.924 1933)">
   <path d="m74.8535 28.3203c35.1074 0 63.623-28.4668 63.623-63.5742s-28.5156-63.623-63.623-63.623-63.5742 28.5156-63.5742 63.623 28.4668 63.5742 63.5742 63.5742Zm0-9.08203c-30.127 0-54.4922-24.3652-54.4922-54.4922s24.3652-54.4922 54.4922-54.4922 54.4922 24.3652 54.4922 54.4922-24.3652 54.4922-54.4922 54.4922Zm-28.8574-54.4922c0 2.58789 1.85547 4.39453 4.58984 4.39453h19.7266v19.7754c0 2.68555 1.85547 4.58984 4.44336 4.58984 2.68555 0 4.54102-1.85547 4.54102-4.58984v-19.7754h19.7754c2.68555 0 4.58984-1.80664 4.58984-4.39453 0-2.73438-1.85547-4.58984-4.58984-4.58984h-19.7754v-19.7266c0-2.73438-1.85547-4.63867-4.54102-4.63867-2.58789 0-4.44336 1.9043-4.44336 4.63867v19.7266h-19.7266c-2.73438 0-4.58984 1.85547-4.58984 4.58984Z"/>
  </g>
  <text style="stroke:none;fill:black;font-family:sans-serif;font-size:13;font-weight:bold;" transform="matrix(1 0 0 1 263 1953)">Design Variations</text>
  <text style="stroke:none;fill:black;font-family:sans-serif;font-size:13;" transform="matrix(1 0 0 1 263 1971)">Symbols are supported in up to nine weights and three scales.</text>
  <text style="stroke:none;fill:black;font-family:sans-serif;font-size:13;" transform="matrix(1 0 0 1 263 1989)">For optimal layout with text and other symbols, vertically align</text>
  <text style="stroke:none;fill:black;font-family:sans-serif;font-size:13;" transform="matrix(1 0 0 1 263 2007)">symbols with the adjacent text.</text>
  <line style="fill:none;stroke:#00AEEF;stroke-width:0.5;opacity:1.0;" x1="776" x2="776" y1="1919" y2="1933"/>
  <g transform="matrix(0.2 0 0 0.2 776 1933)">
   <path d="m16.5527 0.78125c2.58789 0 3.85742-0.976562 4.78516-3.71094l6.29883-17.2363h28.8086l6.29883 17.2363c0.927734 2.73438 2.19727 3.71094 4.73633 3.71094 2.58789 0 4.24805-1.5625 4.24805-4.00391 0-0.830078-0.146484-1.61133-0.537109-2.63672l-22.9004-60.9863c-1.12305-2.97852-3.125-4.49219-6.25-4.49219-3.02734 0-5.07812 1.46484-6.15234 4.44336l-22.9004 61.084c-0.390625 1.02539-0.537109 1.80664-0.537109 2.63672 0 2.44141 1.5625 3.95508 4.10156 3.95508Zm13.4766-28.3691 11.8652-32.8613h0.244141l11.8652 32.8613Z"/>
  </g>
  <line style="fill:none;stroke:#00AEEF;stroke-width:0.5;opacity:1.0;" x1="792.836" x2="792.836" y1="1919" y2="1933"/>
  <text style="stroke:none;fill:black;font-family:sans-serif;font-size:13;font-weight:bold;" transform="matrix(1 0 0 1 776 1953)">Margins</text>
  <text style="stroke:none;fill:black;font-family:sans-serif;font-size:13;" transform="matrix(1 0 0 1 776 1971)">Leading and trailing margins on the left and right side of each symbol</text>
  <text style="stroke:none;fill:black;font-family:sans-serif;font-size:13;" transform="matrix(1 0 0 1 776 1989)">can be adjusted by modifying the x-location of the margin guidelines.</text>
  <text style="stroke:none;fill:black;font-family:sans-serif;font-size:13;" transform="matrix(1 0 0 1 776 2007)">Modifications are automatically applied proportionally to all</text>
  <text style="stroke:none;fill:black;font-family:sans-serif;font-size:13;" transform="matrix(1 0 0 1 776 2025)">scales and weights.</text>
  <g transform="matrix(0.2 0 0 0.2 1289 1933)">
   <path d="m14.209 9.32617 8.49609 8.54492c4.29688 4.3457 9.22852 4.05273 13.8672-1.07422l53.4668-58.9355-4.83398-4.88281-53.0762 58.3984c-1.75781 2.00195-3.41797 2.49023-5.76172 0.146484l-5.85938-5.81055c-2.34375-2.29492-1.80664-4.00391 0.195312-5.81055l57.373-54.0039-4.88281-4.83398-57.959 54.4434c-4.93164 4.58984-5.32227 9.47266-1.02539 13.8184Zm32.0801-90.9668c-2.09961 2.05078-2.24609 4.93164-1.07422 6.88477 1.17188 1.80664 3.4668 2.97852 6.68945 2.14844 7.32422-1.70898 14.9414-2.00195 22.0703 2.68555l-2.92969 7.27539c-1.70898 4.15039-0.830078 7.08008 1.85547 9.81445l11.4746 11.5723c2.44141 2.44141 4.49219 2.53906 7.32422 2.05078l5.32227-0.976562 3.32031 3.36914-0.195312 2.7832c-0.195312 2.49023 0.439453 4.39453 2.88086 6.78711l3.80859 3.71094c2.39258 2.39258 5.46875 2.53906 7.8125 0.195312l14.5508-14.5996c2.34375-2.34375 2.24609-5.32227-0.146484-7.71484l-3.85742-3.80859c-2.39258-2.39258-4.24805-3.17383-6.64062-2.97852l-2.88086 0.244141-3.22266-3.17383 1.2207-5.61523c0.634766-2.83203-0.146484-5.0293-3.07617-7.95898l-10.9863-10.9375c-16.6992-16.6016-38.8672-16.2109-53.3203-1.75781Zm7.4707 1.85547c12.1582-8.88672 28.6133-7.37305 39.7461 3.75977l12.1582 12.0605c1.17188 1.17188 1.36719 2.09961 1.02539 3.80859l-1.61133 7.42188 7.51953 7.42188 4.93164-0.292969c1.26953-0.0488281 1.66016 0.0488281 2.63672 1.02539l2.88086 2.88086-12.207 12.207-2.88086-2.88086c-0.976562-0.976562-1.12305-1.36719-1.07422-2.68555l0.341797-4.88281-7.4707-7.42188-7.61719 1.26953c-1.61133 0.341797-2.34375 0.195312-3.56445-0.976562l-10.0098-10.0098c-1.26953-1.17188-1.41602-2.00195-0.634766-3.85742l4.39453-10.4492c-7.8125-7.27539-17.9688-10.4004-28.125-7.42188-0.78125 0.195312-1.07422-0.439453-0.439453-0.976562Z"/>
  </g>
  <text style="stroke:none;fill:black;font-family:sans-serif;font-size:13;font-weight:bold;" transform="matrix(1 0 0 1 1289 1953)">Exporting</text>
  <text style="stroke:none;fill:black;font-family:sans-serif;font-size:13;" transform="matrix(1 0 0 1 1289 1971)">Symbols should be outlined when exporting to ensure the</text>
  <text style="stroke:none;fill:black;font-family:sans-serif;font-size:13;" transform="matrix(1 0 0 1 1289 1989)">design is preserved when submitting to Xcode.</text>
  <text id="template-version" style="stroke:none;fill:black;font-family:sans-serif;font-size:13;text-anchor:end;" transform="matrix(1 0 0 1 3036 1933)">Template v.6.0</text>
  <text style="stroke:none;fill:black;font-family:sans-serif;font-size:13;text-anchor:end;" transform="matrix(1 0 0 1 3036 1951)">Requires Xcode 16 or greater</text>
  <text id="descriptive-name" style="stroke:none;fill:black;font-family:sans-serif;font-size:13;text-anchor:end;" transform="matrix(1 0 0 1 3036 1969)">Generated from </text>
  <text style="stroke:none;fill:black;font-family:sans-serif;font-size:13;text-anchor:end;" transform="matrix(1 0 0 1 3036 1987)">Typeset at 100.0 points</text>
  <text style="stroke:none;fill:black;font-family:sans-serif;font-size:13;" transform="matrix(1 0 0 1 263 726)">Small</text>
  <text style="stroke:none;fill:black;font-family:sans-serif;font-size:13;" transform="matrix(1 0 0 1 263 1156)">Medium</text>
  <text style="stroke:none;fill:black;font-family:sans-serif;font-size:13;" transform="matrix(1 0 0 1 263 1586)">Large</text>
 </g>
 <g id="Guides">
  <g id="H-reference" style="fill:#27AAE1;stroke:none;" transform="matrix(1 0 0 1 339 696)">
   <path d="M0.993654 0L3.63775 0L29.3281-67.1323L30.0303-67.1323L30.0303-70.459L28.1226-70.459ZM11.6885-24.4799L46.9815-24.4799L46.2315-26.7285L12.4385-26.7285ZM55.1196 0L57.7637 0L30.6382-70.459L29.4326-70.459L29.4326-67.1323Z"/>
  </g>
  <line id="Baseline-S" style="fill:none;stroke:#27AAE1;opacity:1;stroke-width:0.5;" x1="263" x2="3036" y1="696" y2="696"/>
  <line id="Capline-S" style="fill:none;stroke:#27AAE1;opacity:1;stroke-width:0.5;" x1="263" x2="3036" y1="625.541" y2="625.541"/>
  <g id="H-reference" style="fill:#27AAE1;stroke:none;" transform="matrix(1 0 0 1 339 1126)">
   <path d="M0.993654 0L3.63775 0L29.3281-67.1323L30.0303-67.1323L30.0303-70.459L28.1226-70.459ZM11.6885-24.4799L46.9815-24.4799L46.2315-26.7285L12.4385-26.7285ZM55.1196 0L57.7637 0L30.6382-70.459L29.4326-70.459L29.4326-67.1323Z"/>
  </g>
  <line id="Baseline-M" style="fill:none;stroke:#27AAE1;opacity:1;stroke-width:0.5;" x1="263" x2="3036" y1="1126" y2="1126"/>
  <line id="Capline-M" style="fill:none;stroke:#27AAE1;opacity:1;stroke-width:0.5;" x1="263" x2="3036" y1="1055.54" y2="1055.54"/>
  <g id="H-reference" style="fill:#27AAE1;stroke:none;" transform="matrix(1 0 0 1 339 1556)">
   <path d="M0.993654 0L3.63775 0L29.3281-67.1323L30.0303-67.1323L30.0303-70.459L28.1226-70.459ZM11.6885-24.4799L46.9815-24.4799L46.2315-26.7285L12.4385-26.7285ZM55.1196 0L57.7637 0L30.6382-70.459L29.4326-70.459L29.4326-67.1323Z"/>
  </g>
  <line id="Baseline-L" style="fill:none;stroke:#27AAE1;opacity:1;stroke-width:0.5;" x1="263" x2="3036" y1="1556" y2="1556"/>
  <line id="Capline-L" style="fill:none;stroke:#27AAE1;opacity:1;stroke-width:0.5;" x1="263" x2="3036" y1="1485.54" y2="1485.54"/>
  <line id="right-margin-Black-S" style="fill:none;stroke:#FF3B30;stroke-width:0.5;opacity:1.0;" x1="2995.88" x2="2995.88" y1="600.785" y2="720.121"/>
  <line id="left-margin-Black-S" style="fill:none;stroke:#00AEEF;stroke-width:0.5;opacity:1.0;" x1="2870.92" x2="2870.92" y1="600.785" y2="720.121"/>
  <line id="right-margin-Regular-S" style="fill:none;stroke:#FF3B30;stroke-width:0.5;opacity:1.0;" x1="1508.63" x2="1508.63" y1="600.785" y2="720.121"/>
  <line id="left-margin-Regular-S" style="fill:none;stroke:#00AEEF;stroke-width:0.5;opacity:1.0;" x1="1391.06" x2="1391.06" y1="600.785" y2="720.121"/>
  <line id="right-margin-Ultralight-S" style="fill:none;stroke:#FF3B30;stroke-width:0.5;opacity:1.0;" x1="609.691" x2="609.691" y1="600.785" y2="720.121"/>
  <line id="left-margin-Ultralight-S" style="fill:none;stroke:#00AEEF;stroke-width:0.5;opacity:1.0;" x1="509.732" x2="509.732" y1="600.785" y2="720.121"/>
 </g>
 <g id="Symbols">
  <g id="Black-S" transform="matrix(1 0 0 1 2870.92 696)">
   <path class="monochrome-0 multicolor-0:tintColor hierarchical-0:secondary SFSymbolsPreviewWireframe" d="M6.83594-36.6211C6.83594-20.6055 17.9688-9.76562 34.375-9.76562C50.5859-9.76562 61.5723-19.6289 61.5723-34.1797C61.5723-40.2344 59.5215-45.2637 55.6152-48.5352C53.4668-50.3418 51.9531-50.9766 49.9023-50.9766C46.6309-50.9766 44.1895-48.7305 44.1895-45.6543C44.1895-42.7734 44.873-42.4805 48.3887-39.1602C49.4629-38.1836 50-36.5723 50-34.3262C50-26.5625 43.9453-21.4355 34.5215-21.4355C24.8535-21.4355 18.5547-27.4414 18.5547-36.6699C18.5547-42.7246 21.9727-47.998 27.5391-50.4395L21.4355-60.498C12.3535-55.9082 6.83594-46.7285 6.83594-36.6211ZM17.0898-58.7402C17.0898-48.1934 24.5605-41.0156 35.4004-41.0156C38.623-41.0156 41.2598-43.6523 41.2598-46.875C41.2598-50.0977 38.623-52.7344 35.4004-52.7344C31.2988-52.7344 28.8086-55.0293 28.8086-58.7402C28.8086-62.6465 32.0801-65.3809 36.7676-65.3809C40.0879-65.3809 43.2617-64.0137 45.9961-61.4258L52.9297-70.9961C48.3398-74.9023 42.5293-77.0996 36.8164-77.0996C25.5859-77.0996 17.0898-69.2383 17.0898-58.7402ZM39.0625-60.791C39.0625-57.1289 41.5039-54.541 44.873-54.541C48.1934-54.541 50.5371-56.8848 50.6836-60.2539C50.9277-66.3574 55.2246-70.5566 61.2305-70.5566C64.7461-70.5566 68.0176-68.7012 69.3359-65.9668C70.166-64.4043 71.6309-64.0625 73.3398-64.4531C74.3164-64.6973 75.4883-64.7949 76.5625-64.7949C82.8613-64.7461 87.8906-59.8145 87.8906-53.5645C87.8906-37.0605 63.1348-37.1094 63.1348-17.9199C63.1348-7.91016 70.3613-1.2207 81.25-1.2207C81.3477-1.2207 81.4941-1.2207 81.5918-1.2207C83.4961 6.44531 89.0137 11.7188 95.7031 11.7188C105.859 11.7188 113.184 1.9043 113.184-13.5742C113.184-20.8496 112.695-24.9512 112.158-29.1016L100.586-25.9766C101.025-22.0703 101.514-18.6035 101.514-13.7207C101.514-3.4668 98.4375 0 95.7031 0C93.2617 0 91.3086-3.85742 91.3086-9.13086C91.3086-10.791 90.0391-11.9629 88.3301-11.9629C88.0371-11.9629 87.7441-11.9629 85.8398-11.9629C79.541-11.9629 75.8301-14.6484 75.8301-18.7012C75.8301-29.1992 99.6094-29.248 99.6094-53.5645C99.6094-66.4551 89.8926-76.5137 77.5879-76.5137C77.1484-76.5137 76.6113-76.4648 75.9766-76.416C72.168-80.0781 66.7969-82.2266 61.2793-82.2266C48.8281-82.2266 39.0625-73.4375 39.0625-60.791ZM86.7676-20.3125C86.7676-17.1387 89.209-14.6973 92.4805-14.4531C107.715-13.2812 118.115-22.4609 118.115-37.0605C118.115-49.3652 108.789-58.8379 95.3125-59.9609L93.2617-47.8516C101.123-49.0723 106.396-44.5801 106.396-37.0605C106.396-29.5898 101.172-25.293 92.8223-26.123C89.5508-26.416 86.7676-23.6816 86.7676-20.3125ZM68.7012-18.75C66.2598-17.4316 63.2812-16.6504 60.3516-16.6504C57.373-16.6504 54.4434-17.4805 52.2461-19.3848L39.8926-11.084C44.8242-7.22656 51.709-4.98047 58.9844-4.98047C63.6719-4.98047 68.4082-5.85938 72.8027-7.4707ZM51.0742-43.3105L55.0781-31.9336C67.0898-33.5938 73.9746-40.6738 73.4863-52.1973C73.3398-55.4199 70.5566-58.0566 67.334-58.0566C64.1113-58.0566 61.5234-55.4199 61.7676-52.1973C62.2559-45.8984 58.8867-43.7012 51.0742-43.3105Z"/>
   <path class="monochrome-1 multicolor-1:tintColor hierarchical-1:primary SFSymbolsPreviewWireframe" d="M106.216 16.7949C121.158 16.7949 133.511 4.39255 133.511-10.5489C133.511-25.4903 121.158-37.7949 106.216-37.7949C91.2747-37.7949 78.9212-25.4903 78.9212-10.5489C78.9212 4.39255 91.2747 16.7949 106.216 16.7949Z"/>
   <path class="monochrome-2 multicolor-2:tintColor hierarchical-2:primary SFSymbolsPreviewWireframe" d="M104.458 11.5214L107.876 11.5214C109.683 11.5214 111.148 10.3496 111.538 8.64065L112.32 5.27145C112.564 5.17385 112.759 5.12495 112.955 5.02735L115.835 6.83395C117.349 7.76175 119.253 7.61525 120.572 6.29685L122.964 3.90425C124.234 2.63475 124.332 0.68165 123.404-0.83205L121.646-3.71285C121.744-3.90825 121.792-4.05465 121.89-4.25005L125.259-5.08005C127.017-5.51955 128.189-6.93555 128.189-8.74215L128.189-12.1114C128.189-13.918 127.017-15.4316 125.259-15.8222L121.939-16.6036C121.89-16.75 121.792-16.9941 121.695-17.1407L123.501-20.1191C124.429-21.6328 124.283-23.586 122.964-24.8555L120.474-27.2481C119.302-28.371 117.496-28.7129 115.982-27.7852L112.955-25.9297C112.759-26.0273 112.564-26.0761 112.369-26.1739L111.538-29.5918C111.099-31.3496 109.683-32.5214 107.876-32.5214L104.458-32.5214C102.603-32.5214 101.236-31.3496 100.796-29.543L99.9661-26.2227C99.7708-26.1739 99.5266-26.0273 99.3313-25.9297L96.304-27.7852C94.888-28.664 93.0325-28.4199 91.8118-27.2481L89.3216-24.8555C88.0032-23.6347 87.9055-21.6816 88.8333-20.1191L90.6399-17.1407C90.4934-16.9941 90.4446-16.75 90.3469-16.6036L87.0755-15.8222C85.2688-15.3828 84.1458-13.918 84.1458-12.1114L84.1458-8.74215C84.1458-6.93555 85.3176-5.51955 87.0755-5.08005L90.4446-4.25005C90.4934-4.05465 90.5911-3.90825 90.6399-3.71285L88.8821-0.83205C87.9544 0.68165 88.052 2.63475 89.3216 3.90425L91.763 6.29685C93.0325 7.56645 94.9368 7.76175 96.4505 6.83395L99.3801 5.02735C99.5266 5.12495 99.7708 5.17385 99.9661 5.27145L100.796 8.64065C101.236 10.3496 102.603 11.5214 104.458 11.5214ZM106.167-4.34765C102.847-4.34765 100.064-7.13085 100.064-10.5C100.064-13.8203 102.847-16.6036 106.167-16.6036C109.488-16.6036 112.32-13.8203 112.32-10.5C112.32-7.13085 109.488-4.34765 106.167-4.34765Z"/>
  </g>
  <g id="Regular-S" transform="matrix(1 0 0 1 1391.06 696)">
   <path class="monochrome-0 multicolor-0:tintColor hierarchical-0:secondary SFSymbolsPreviewWireframe" d="M6.83594-38.0859C6.83594-23.4863 16.8457-13.7695 31.8359-13.7695C46.6309-13.7695 56.4941-22.5586 56.4941-35.6445C56.4941-41.2109 54.5898-45.459 51.3672-48.1934C49.7559-49.5605 48.7793-50.0488 47.2656-50.0488C45.2148-50.0488 43.8965-48.8281 43.8965-47.0215C43.8965-44.7754 45.166-44.2383 47.2168-42.334C48.7305-40.918 49.5605-38.6719 49.5605-35.791C49.5605-26.8066 42.5293-20.8008 31.9824-20.8008C21.1426-20.8008 13.8672-27.7344 13.8672-38.1348C13.8672-44.1895 16.8945-49.6582 21.9238-52.7832L18.3105-58.8379C11.1328-54.3945 6.83594-46.582 6.83594-38.0859ZM17.7246-58.5938C17.7246-49.4629 24.0723-43.2617 33.6426-43.2617C35.5957-43.2617 37.1582-44.873 37.1582-46.7773C37.1582-48.7305 35.5957-50.293 33.6426-50.293C28.2715-50.293 24.7559-53.6621 24.7559-58.5938C24.7559-64.0625 29.3945-67.5293 35.0098-67.5293C37.8906-67.5293 40.9668-66.6016 43.75-64.5996L47.9004-70.3125C43.8477-73.2422 39.3066-74.5605 35.0586-74.5605C25.7324-74.5605 17.7246-68.2617 17.7246-58.5938ZM38.6719-59.5703C38.623-57.2754 40.1367-55.7617 42.1875-55.7617C44.0918-55.7617 45.5566-56.9824 45.6543-59.2285C45.9473-66.4062 51.0742-71.6797 58.4473-71.6797C62.9883-71.6797 66.8945-69.2383 68.457-65.918C68.75-65.3809 69.1895-65.332 70.0195-65.5273C71.1914-65.7715 72.5098-65.918 73.8281-65.918C80.5176-65.8691 87.3047-60.791 87.3047-52.4902C87.3047-33.9355 61.6699-37.0117 61.6699-18.9941C61.6699-10.2051 68.7012-4.6875 77.4902-4.6875C78.4668-4.6875 79.4922-4.73633 80.4688-4.78516C81.4453 1.5625 85.6445 8.20312 92.627 8.20312C102.783 8.20312 107.666-4.00391 107.666-14.8926C107.666-20.4102 107.373-23.9746 106.982-27.2949L99.9512-25.3906C100.342-22.2168 100.635-19.0918 100.635-14.9902C100.635-6.29883 96.9727 1.12305 92.627 1.12305C87.7441 1.12305 85.9863-5.51758 85.9863-10.2051C85.9863-10.5957 85.791-10.8398 85.2539-10.8398C84.082-10.8398 82.9102-10.8398 81.8359-10.8398C73.877-10.8398 68.7012-13.0371 68.7012-19.0918C68.7012-33.252 94.3359-29.3457 94.3359-52.4902C94.3359-64.7949 85.0098-72.998 74.8047-72.998C74.1699-72.998 73.2422-72.8516 72.2656-72.7051C68.9941-76.3672 63.9648-78.7109 58.4961-78.7109C47.2168-78.7109 39.1602-70.8008 38.6719-59.5703ZM84.2773-20.9961C84.2773-19.043 85.791-17.627 87.793-17.4805C101.562-16.4551 110.742-24.5117 110.742-37.5977C110.742-48.0469 103.271-56.1523 92.0898-57.8125L90.9668-50.8301C98.584-50.7324 103.711-45.459 103.711-37.5977C103.711-28.8574 97.3145-23.584 87.793-24.4629C85.791-24.6582 84.2773-22.9004 84.2773-20.9961ZM64.6484-16.3574C62.3047-15.4785 59.668-15.0879 57.0801-15.0879C50.3418-15.0879 43.6523-17.7734 41.2598-21.6309L35.4004-16.8945C39.502-11.7676 47.1191-8.05664 56.2988-8.05664C59.7168-8.05664 63.3789-8.54492 67.0898-9.66797ZM52.3438-44.4824L54.6875-37.8418C64.7949-39.7949 69.2383-46.1426 69.2383-55.3711C69.2383-57.3242 67.627-58.8867 65.7227-58.8867C63.7695-58.8867 62.207-57.3242 62.207-55.3711C62.207-49.2188 59.6191-45.5078 52.3438-44.4824Z"/>
   <path class="monochrome-1 multicolor-1:tintColor hierarchical-1:primary SFSymbolsPreviewWireframe" d="M99.9345 14.8906C113.753 14.8906 125.325 3.3184 125.325-10.5C125.325-24.416 113.85-35.8906 99.9345-35.8906C85.9696-35.8906 74.5439-24.416 74.5439-10.5C74.5439 3.4649 85.9696 14.8906 99.9345 14.8906Z"/>
   <path class="monochrome-2 multicolor-2:tintColor hierarchical-2:primary SFSymbolsPreviewWireframe" d="M98.2255 9.6172L101.595 9.6172C102.767 9.6172 103.694 8.8848 103.987 7.6641L104.915 3.8066C105.452 3.6602 106.087 3.416 106.624 3.1719L109.993 5.1738C111.018 5.8086 112.141 5.8086 113.02 4.8809L115.315 2.5859C116.145 1.707 116.243 0.584 115.559-0.5391L113.557-3.9082C113.899-4.4453 114.046-4.9336 114.241-5.4707L118.098-6.3984C119.319-6.6426 120.1-7.5703 120.1-8.791L120.1-12.1113C120.1-13.2832 119.27-14.1621 118.098-14.4551L114.29-15.3828C114.046-16.0664 113.802-16.5059 113.606-16.9453L115.706-20.4121C116.341-21.4375 116.243-22.707 115.413-23.4883L113.02-25.7832C112.19-26.6133 111.018-26.8086 110.042-26.2227L106.624-24.0742C105.989-24.416 105.452-24.5625 104.915-24.7578L103.987-28.6152C103.694-29.7871 102.767-30.5684 101.595-30.5684L98.2255-30.5684C97.0048-30.5684 96.0282-29.7383 95.7841-28.6152L94.9052-24.8066C94.2216-24.5625 93.6845-24.416 93.1474-24.0742L89.7782-26.2227C88.8505-26.7598 87.6298-26.6133 86.7509-25.7832L84.456-23.4883C83.6747-22.6582 83.3817-21.4375 84.0165-20.4121L86.1649-16.9453C85.9696-16.5059 85.7255-15.9687 85.4813-15.3828L81.7216-14.4551C80.5497-14.1621 79.7685-13.2344 79.7685-12.1113L79.7685-8.791C79.7685-7.5703 80.5497-6.6426 81.7216-6.3984L85.5302-5.4707C85.7743-4.9336 85.9696-4.4453 86.2138-3.9082L84.2118-0.4902C83.5771 0.584 83.6747 1.7559 84.5048 2.5859L86.7509 4.8809C87.6298 5.8086 88.8017 5.8086 89.8271 5.1738L93.245 3.1719C93.831 3.4649 94.3681 3.6602 94.9052 3.8066L95.7841 7.6641C96.0282 8.8359 97.0048 9.6172 98.2255 9.6172ZM99.9345-4.0059C96.2724-4.0059 93.4403-6.8379 93.4403-10.4512C93.4403-14.0156 96.2724-16.8965 99.9345-16.9453C103.401-16.9941 106.38-14.0156 106.38-10.4512C106.38-6.8379 103.401-4.0059 99.9345-4.0059Z"/>
  </g>
  <g id="Ultralight-S" transform="matrix(1 0 0 1 509.732 696)">
   <path class="monochrome-0 multicolor-0:tintColor hierarchical-0:secondary SFSymbolsPreviewWireframe" d="M6.83594-38.313C6.83594-27.2553 14.3936-19.9907 25.8873-19.9907C37.004-19.9907 44.5514-26.4184 44.5514-36.0532C44.5514-39.9395 42.9195-43.8696 40.6051-45.9683C40.2198-46.2456 39.9698-46.3706 39.546-46.3706C38.9029-46.3706 38.4473-45.9219 38.4473-45.2959C38.4473-44.8662 38.627-44.6016 38.9976-44.2412C41.1924-42.0986 42.3858-39.0806 42.3858-36.0635C42.3858-27.7602 35.7632-22.2085 25.8975-22.2085C15.6934-22.2085 9.05375-28.5972 9.05375-38.3618C9.05375-43.7808 11.8995-49.6128 16.2022-52.874L15.6768-55.0689C10.3608-51.6699 6.83594-44.811 6.83594-38.313ZM14.6367-55.9146C14.6367-49.917 18.7593-44.2607 27.1036-44.2607C27.649-44.2607 28.2125-44.8276 28.2125-45.3696C28.2125-45.9605 27.649-46.4785 27.1036-46.4785C20.1885-46.4785 16.8091-51.0738 16.8091-55.9146C16.8091-61.1563 20.7667-66.4395 28.3345-66.4395C30.8521-66.4395 33.4288-65.8296 35.8033-64.5088L37.0929-66.3618C34.3116-67.9292 31.3599-68.6573 28.3834-68.6573C19.3751-68.6573 14.6367-62.2676 14.6367-55.9146ZM32.4053-57.1182C32.4019-56.4126 32.9166-55.8979 33.5142-55.8979C34.1016-55.8979 34.6129-56.3921 34.6197-57.0034C34.9127-64.7261 40.5846-70.272 48.4117-70.272C52.6348-70.272 56.5865-68.3755 58.0128-63.9199C58.2149-63.3374 58.5636-63.334 59.0304-63.5293C60.7926-64.273 62.565-64.6011 64.2921-64.5557C71.8443-64.4614 76.9513-59.0654 76.9513-51.0371C76.9513-35.7519 53.4507-35.4678 53.4507-20.3564C53.4507-13.8379 58.1207-9.95504 65.8199-9.95504C66.4786-9.95504 67.4132-10.0039 68.4352-10.0527C68.8668-2.84225 72.3849 1.98198 77.4601 1.98198C84.3468 1.98198 88.0944-7.09177 88.0944-20.3872C88.0944-22.6806 87.9377-24.9282 87.7741-27.2041L85.4654-26.2988C85.7198-23.8515 85.8766-22.0888 85.8766-20.3032C85.8766-8.29686 82.941-0.239247 77.4601-0.239247C73.2584-0.239247 70.547-4.88184 70.547-11.5674C70.547-12.0034 70.3063-12.293 69.86-12.2475C69.0968-12.2021 66.608-12.1113 65.9879-12.1113C59.7999-12.1113 55.6686-15.1714 55.6686-20.3633C55.6686-33.5244 79.1691-33.9321 79.1691-51.0371C79.1691-60.481 73.1578-66.7769 64.3604-66.7769C62.9991-66.8223 61.2086-66.5396 59.5963-65.9844C57.4601-70.2823 53.1119-72.4898 48.4151-72.4898C39.4063-72.4898 32.8936-66.2598 32.4053-57.1182ZM74.8321-24.311C74.8321-23.6748 75.3468-23.2124 75.941-23.2021C86.2594-23.1303 93.1232-29.3706 93.1232-38.7783C93.1232-47.6382 86.8331-53.9273 77.4679-54.4976L77.4347-52.2378C85.506-51.9585 90.9054-46.5942 90.9054-38.7783C90.9054-30.7192 84.9176-25.355 75.941-25.3711C75.3468-25.3848 74.8321-24.8984 74.8321-24.311ZM54.9307-17.8105C53.0865-17.2495 50.4044-16.9043 48.2706-16.9043C43.0762-16.9043 37.1133-18.727 34.1758-22.8115L32.3125-21.2993C36.0054-16.8535 41.8062-14.6865 48.2159-14.6865C50.2261-14.6865 53.1163-15.0385 55.4649-15.5712ZM42.8077-39.669L43.6075-37.6147C51.1266-39.1592 54.9796-43.7813 54.8888-51.4659C54.8888-52.0567 54.4127-52.5748 53.7799-52.5748C53.189-52.5748 52.671-52.0567 52.671-51.4659C52.671-44.7232 49.5836-40.9214 42.8077-39.669Z"/>
   <path class="monochrome-1 multicolor-1:tintColor hierarchical-1:primary SFSymbolsPreviewWireframe" d="M84.9876 10.8492C96.6262 10.8492 106.337 1.22955 106.337-10.5C106.337-22.2362 96.6782-31.8492 84.9876-31.8492C73.2933-31.8492 63.5931-22.1908 63.5931-10.5C63.5931 1.23985 73.2933 10.8492 84.9876 10.8492Z"/>
   <path class="monochrome-2 multicolor-2:tintColor hierarchical-2:primary SFSymbolsPreviewWireframe" d="M83.4602 7.89165L86.4207 7.89165C87.5471 7.89165 88.384 7.20465 88.6316 6.07475L89.4685 2.58065C89.9602 2.43415 90.5496 2.18995 91.0413 1.94585L94.1382 3.81155C95.0722 4.40095 96.1052 4.40095 96.9382 3.56405L99.0512 1.40535C99.7912 0.61725 99.8882-0.36955 99.2502-1.40185L97.4302-4.49845C97.7262-4.99015 97.8732-5.43305 98.0682-5.92475L101.562-6.76165C102.692-7.00585 103.382-7.88815 103.382-8.97265L103.382-12.0204C103.382-13.1015 102.643-13.8442 101.562-14.1372L98.1172-15.0195C97.8732-15.6123 97.6282-16.0517 97.4792-16.4911L99.3972-19.64C99.9862-20.5747 99.8432-21.7079 99.1042-22.4438L96.9382-24.5117C96.1532-25.2963 95.0722-25.4462 94.1873-24.9058L91.0413-22.9389C90.4519-23.2353 89.9602-23.3818 89.4685-23.5771L88.6316-27.1166C88.384-28.1977 87.5471-28.9335 86.4207-28.9335L83.4602-28.9335C82.3757-28.9335 81.49-28.1488 81.2459-27.1166L80.4578-23.6259C79.8196-23.3818 79.3279-23.2353 78.7908-22.9389L75.6941-24.9058C74.8572-25.4429 73.7273-25.2963 72.9392-24.5117L70.8713-22.4438C70.1355-21.6591 69.8425-20.5747 70.4319-19.64L72.3987-16.4911C72.2489-16.0517 72.0046-15.56 71.8059-15.0195L68.3186-14.1372C67.2375-13.8442 66.5471-13.0526 66.5471-12.0204L66.5471-8.97265C66.5471-7.88815 67.2375-7.00585 68.3186-6.76165L71.8093-5.92475C72.0535-5.43305 72.2489-4.99015 72.4475-4.49845L70.6272-1.35295C70.0378-0.36955 70.1355 0.66605 70.8748 1.40535L72.9392 3.56405C73.7273 4.40095 74.8084 4.35555 75.7429 3.81155L78.8884 1.94585C79.4744 2.23885 79.9661 2.43415 80.4578 2.58065L81.2459 6.07475C81.49 7.15585 82.3757 7.89165 83.4602 7.89165ZM84.9876-4.55075C81.6433-4.55075 79.0383-7.20115 79.0383-10.4965C79.0383-13.7432 81.6433-16.4423 84.9876-16.4911C88.1365-16.5399 90.888-13.7432 90.888-10.4965C90.888-7.20115 88.1365-4.55075 84.9876-4.55075Z"/>
  </g>
 </g>
</svg>
